<?xml version="1.0" standalone="no"?>
<!DOCTYPE svg PUBLIC "-//W3C//DTD SVG 20010904//EN"
 "http://www.w3.org/TR/2001/REC-SVG-20010904/DTD/svg10.dtd">
<svg version="1.0" xmlns="http://www.w3.org/2000/svg"
 width="512.000000pt" height="512.000000pt" viewBox="0 0 512.000000 512.000000"
 preserveAspectRatio="xMidYMid meet">

<g transform="translate(0.000000,512.000000) scale(0.100000,-0.100000)"
fill="#000000" stroke="none">
<path d="M772 4800 c-223 -59 -395 -232 -452 -456 -19 -75 -20 -116 -20 -1391
l0 -1313 60 0 60 0 0 1308 c0 1436 -3 1357 61 1484 40 79 128 167 207 207 128
64 42 61 1544 61 l1368 0 0 60 0 60 -1377 -1 c-1323 0 -1381 -1 -1451 -19z"/>
<path d="M3680 4760 l0 -60 288 0 c223 0 301 -3 345 -15 185 -48 324 -187 372
-372 23 -86 23 -3420 0 -3506 -48 -185 -187 -324 -372 -372 -86 -23 -3420 -23
-3506 0 -185 48 -324 187 -372 372 -11 43 -15 118 -15 305 l0 248 -60 0 -60 0
0 -253 c0 -220 3 -264 20 -331 57 -225 231 -399 456 -456 76 -20 114 -20 1784
-20 1666 0 1709 0 1784 20 225 57 399 231 456 456 20 76 20 114 20 1784 0
1670 0 1708 -20 1784 -57 225 -231 399 -456 456 -68 18 -111 20 -371 20 l-293
0 0 -60z"/>
<path d="M1686 3948 c-57 -52 -94 -284 -68 -427 10 -54 10 -54 -36 -120 -96
-140 -117 -220 -116 -431 2 -185 24 -301 82 -424 70 -151 173 -255 327 -331
84 -42 244 -95 286 -95 29 0 30 -15 3 -74 -23 -50 -30 -57 -67 -67 -50 -13
-153 -7 -192 12 -16 8 -53 43 -83 79 -94 112 -152 168 -198 190 -77 38 -209
23 -228 -25 -16 -42 -6 -78 30 -109 125 -109 132 -118 177 -209 95 -196 222
-277 434 -277 l82 0 3 -121 c2 -66 0 -128 -4 -138 -3 -10 -29 -34 -56 -54 -81
-60 -94 -131 -30 -158 27 -11 138 -14 583 -14 592 0 609 1 621 51 9 37 -4 61
-65 114 l-59 51 -5 282 c-5 284 -11 335 -47 410 -25 50 -25 57 -1 57 10 0 63
11 117 25 298 76 464 240 526 520 18 83 22 132 23 285 0 167 -2 192 -23 260
-30 92 -69 172 -118 236 l-38 49 3 145 c2 125 -1 154 -19 214 -12 38 -33 80
-47 93 -23 24 -30 25 -101 21 -86 -5 -190 -44 -321 -118 l-75 -43 -80 12
c-200 30 -516 23 -657 -14 l-53 -14 -80 48 c-188 113 -373 160 -430 109z m203
-131 c35 -12 101 -43 145 -70 45 -27 95 -58 113 -69 31 -19 32 -19 97 1 146
45 487 53 676 15 l85 -17 78 48 c99 60 223 113 280 121 l46 7 12 -44 c8 -30
10 -92 6 -196 l-6 -151 50 -67 c112 -148 145 -264 136 -489 -9 -245 -55 -384
-162 -491 -94 -93 -255 -158 -466 -185 -111 -15 -139 -29 -139 -70 0 -22 10
-37 44 -65 89 -72 106 -157 106 -520 0 -230 0 -230 25 -268 l26 -37 -426 0
-425 0 26 39 c25 39 25 41 24 232 0 159 -3 197 -16 209 -12 12 -44 15 -162 15
-134 0 -151 2 -194 23 -64 32 -110 85 -158 184 -23 45 -46 89 -52 98 -12 18
23 -21 95 -104 76 -88 132 -111 267 -110 73 1 119 6 150 18 53 20 90 52 90 78
0 31 40 99 82 141 32 31 39 45 36 70 -4 41 -26 51 -160 72 -414 63 -611 277
-634 690 -11 196 21 312 122 441 l46 59 -8 60 c-14 94 -11 285 5 328 15 43 18
44 140 4z"/>
<path d="M300 1500 l0 -60 60 0 60 0 0 60 0 60 -60 0 -60 0 0 -60z"/>
</g>
</svg>
