<?xml version="1.0" standalone="no"?>
<!DOCTYPE svg PUBLIC "-//W3C//DTD SVG 20010904//EN"
 "http://www.w3.org/TR/2001/REC-SVG-20010904/DTD/svg10.dtd">
<svg version="1.0" xmlns="http://www.w3.org/2000/svg"
 width="512.000000pt" height="512.000000pt" viewBox="0 0 512.000000 512.000000"
 preserveAspectRatio="xMidYMid meet">

<g transform="translate(0.000000,512.000000) scale(0.100000,-0.100000)"
fill="#000000" stroke="none">
<path d="M2380 5114 c-19 -2 -78 -9 -130 -14 -330 -36 -695 -160 -990 -336
-375 -224 -680 -529 -904 -904 -175 -292 -291 -632 -338 -990 -16 -123 -16
-497 0 -620 82 -623 356 -1150 820 -1581 256 -239 575 -425 922 -539 274 -91
491 -124 800 -124 228 0 329 9 530 50 689 141 1304 583 1674 1204 175 292 291
632 338 990 16 123 16 497 0 620 -47 358 -163 698 -338 990 -224 375 -529 680
-904 904 -289 173 -634 291 -980 336 -88 12 -438 21 -500 14z m375 -164 c477
-44 887 -203 1270 -493 102 -78 308 -278 392 -382 214 -265 382 -595 462 -908
105 -409 105 -805 0 -1214 -80 -313 -248 -643 -462 -908 -84 -104 -290 -304
-392 -382 -265 -200 -562 -347 -858 -422 -409 -105 -805 -105 -1214 0 -313 80
-643 248 -908 462 -104 84 -304 290 -382 392 -200 265 -347 562 -422 858 -105
409 -105 805 0 1214 80 313 248 643 462 908 84 104 290 304 392 382 265 200
562 346 858 422 272 70 547 94 802 71z"/>
<path d="M1365 4022 c-218 -75 -331 -288 -266 -500 34 -112 103 -192 208 -243
157 -76 335 -47 458 76 91 91 131 213 114 340 -8 62 -55 166 -92 207 -108 117
-284 168 -422 120z m194 -157 c63 -22 108 -61 137 -121 23 -46 26 -64 22 -123
-3 -58 -9 -78 -34 -113 -50 -71 -103 -102 -185 -106 -59 -4 -77 -1 -123 22
-115 56 -166 193 -115 306 27 60 64 98 124 126 57 27 115 30 174 9z"/>
<path d="M1212 3047 l-22 -23 0 -838 c0 -527 4 -844 10 -856 18 -34 65 -40
337 -40 305 0 325 4 343 67 8 27 10 275 8 850 l-3 811 -24 26 -24 26 -302 0
-302 0 -21 -23z m508 -862 l0 -725 -185 0 -185 0 0 725 0 725 185 0 185 0 0
-725z"/>
<path d="M2289 3044 l-24 -26 -3 -811 c-2 -575 0 -823 8 -850 18 -63 38 -67
345 -67 289 0 329 6 339 52 3 13 7 185 10 383 4 379 10 435 55 523 27 53 92
109 136 118 136 25 233 -51 271 -212 20 -83 48 -117 96 -116 36 1 78 39 78 71
0 10 -9 52 -19 93 -38 149 -102 238 -209 290 -62 31 -74 33 -167 33 -87 0
-107 -3 -156 -26 -76 -36 -134 -96 -175 -182 -58 -123 -65 -176 -71 -534 l-6
-323 -183 0 -184 0 0 725 0 725 129 0 128 0 5 -72 c5 -62 9 -75 32 -95 39 -33
62 -29 141 23 236 159 513 187 745 77 99 -47 220 -167 272 -268 94 -185 108
-280 108 -752 l0 -363 -190 0 -190 0 0 145 c0 142 -1 147 -25 170 -32 33 -78
33 -110 0 -25 -24 -25 -25 -25 -224 0 -197 0 -200 24 -228 l24 -28 302 0 302
0 25 29 24 29 -4 476 c-4 444 -5 482 -25 565 -45 184 -121 325 -242 446 -99
99 -178 148 -310 192 -90 30 -103 32 -250 32 -183 0 -261 -17 -446 -100 -6 -3
-14 9 -18 27 -3 18 -16 43 -28 56 -21 23 -24 23 -268 23 l-247 0 -24 -26z"/>
</g>
</svg>
